<svg width="162" height="146" viewBox="0 0 162 146" fill="none" xmlns="http://www.w3.org/2000/svg">
<path d="M113.5 61.5C113.5 78.5992 98.9714 92.5 81 92.5C63.0286 92.5 48.5 78.5992 48.5 61.5C48.5 44.4008 63.0286 30.5 81 30.5C98.9714 30.5 113.5 44.4008 113.5 61.5Z" fill="#F1F608" stroke="#F1F608"/>
<line x1="27.7071" y1="14.2929" x2="54.7071" y2="41.2929" stroke="#F1F608" stroke-width="4"/>
<line x1="16.6133" y1="79.0778" x2="47.6133" y2="66.0778" stroke="#F1F608" stroke-width="4"/>
<line x1="38.3722" y1="110.222" x2="69.3722" y2="85.2216" stroke="#F1F608" stroke-width="4"/>
<line x1="82" y1="130" x2="82" y2="93" stroke="#F1F608" stroke-width="4"/>
<line x1="105.767" y1="79.3578" x2="136.767" y2="116.358" stroke="#F1F608" stroke-width="4"/>
<line x1="113.677" y1="66.0537" x2="154.677" y2="52.0536" stroke="#F1F608" stroke-width="4"/>
<line x1="104.372" y1="41.2216" x2="135.372" y2="16.2216" stroke="#F1F608" stroke-width="4"/>
<line x1="82.0022" y1="30.0665" x2="80.0022" y2="0.0665188" stroke="#F1F608" stroke-width="4"/>
<ellipse cx="110.5" cy="120" rx="29.5" ry="26" fill="#C4C4C4"/>
<ellipse cx="66.5" cy="120" rx="29.5" ry="26" fill="#C4C4C4"/>
<ellipse cx="132.5" cy="94" rx="29.5" ry="26" fill="#C4C4C4"/>
<ellipse cx="95.5" cy="80" rx="29.5" ry="26" fill="#C4C4C4"/>
<ellipse cx="58.5" cy="74" rx="29.5" ry="26" fill="#C4C4C4"/>
<ellipse cx="29.5" cy="100" rx="29.5" ry="26" fill="#C4C4C4"/>
</svg>
