<svg width="139" height="130" viewBox="0 0 139 130" fill="none" xmlns="http://www.w3.org/2000/svg">
<path d="M97.5 61.5C97.5 78.5992 82.9714 92.5 65 92.5C47.0286 92.5 32.5 78.5992 32.5 61.5C32.5 44.4008 47.0286 30.5 65 30.5C82.9714 30.5 97.5 44.4008 97.5 61.5Z" fill="#F1F608" stroke="#F1F608"/>
<line x1="11.7071" y1="14.2929" x2="38.7071" y2="41.2929" stroke="#F1F608" stroke-width="4"/>
<line x1="0.613273" y1="79.0778" x2="31.6133" y2="66.0778" stroke="#F1F608" stroke-width="4"/>
<line x1="22.3722" y1="110.222" x2="53.3722" y2="85.2216" stroke="#F1F608" stroke-width="4"/>
<line x1="66" y1="130" x2="66" y2="93" stroke="#F1F608" stroke-width="4"/>
<line x1="89.7665" y1="79.3578" x2="120.767" y2="116.358" stroke="#F1F608" stroke-width="4"/>
<line x1="97.6769" y1="66.0537" x2="138.677" y2="52.0536" stroke="#F1F608" stroke-width="4"/>
<line x1="88.3722" y1="41.2216" x2="119.372" y2="16.2216" stroke="#F1F608" stroke-width="4"/>
<line x1="66.0022" y1="30.0665" x2="64.0022" y2="0.0665188" stroke="#F1F608" stroke-width="4"/>
</svg>
